<?xml version="1.0" encoding="UTF-8" standalone="no"?>
<!DOCTYPE svg PUBLIC "-//W3C//DTD SVG 1.1//EN"
 "http://www.w3.org/Graphics/SVG/1.1/DTD/svg11.dtd">
<!-- Generated by graphviz version 3.0.0 (20220226.1711)
 -->
<!-- Title: dependencies Pages: 1 -->
<svg width="382pt" height="174pt"
 viewBox="0.00 0.00 382.00 173.80" xmlns="http://www.w3.org/2000/svg" xmlns:xlink="http://www.w3.org/1999/xlink">
<g id="graph0" class="graph" transform="scale(1 1) rotate(0) translate(4 169.8)">
<title>dependencies</title>
<polygon fill="white" stroke="transparent" points="-4,4 -4,-169.8 378,-169.8 378,4 -4,4"/>
<text text-anchor="middle" x="187" y="-8.2" font-family="sans-serif" font-size="14.00">dependencies</text>
<g id="clust1" class="cluster">
<title>cluster_IntroModalPageModule</title>
<polygon fill="none" stroke="black" stroke-dasharray="1,5" points="8,-32.8 8,-157.8 366,-157.8 366,-32.8 8,-32.8"/>
</g>
<g id="clust2" class="cluster">
<title>cluster_IntroModalPageModule_declarations</title>
<polygon fill="none" stroke="black" points="236,-40.8 236,-92.8 358,-92.8 358,-40.8 236,-40.8"/>
</g>
<g id="clust4" class="cluster">
<title>cluster_IntroModalPageModule_imports</title>
<polygon fill="none" stroke="black" points="16,-40.8 16,-92.8 228,-92.8 228,-40.8 16,-40.8"/>
</g>
<!-- IntroModalPage -->
<g id="node1" class="node">
<title>IntroModalPage</title>
<polygon fill="#ffffb3" stroke="black" points="350.48,-84.8 243.52,-84.8 243.52,-48.8 350.48,-48.8 350.48,-84.8"/>
<text text-anchor="middle" x="297" y="-62.6" font-family="Times,serif" font-size="14.00">IntroModalPage</text>
</g>
<!-- IntroModalPageModule -->
<g id="node2" class="node">
<title>IntroModalPageModule</title>
<polygon fill="#8dd3c7" stroke="black" points="277.03,-149.8 274.03,-153.8 253.03,-153.8 250.03,-149.8 126.97,-149.8 126.97,-113.8 277.03,-113.8 277.03,-149.8"/>
<text text-anchor="middle" x="202" y="-127.6" font-family="Times,serif" font-size="14.00">IntroModalPageModule</text>
</g>
<!-- IntroModalPage&#45;&gt;IntroModalPageModule -->
<g id="edge1" class="edge">
<title>IntroModalPage&#45;&gt;IntroModalPageModule</title>
<path fill="none" stroke="black" d="M260.39,-84.91C260.39,-84.91 260.39,-103.79 260.39,-103.79"/>
<polygon fill="black" stroke="black" points="256.89,-103.79 260.39,-113.79 263.89,-103.79 256.89,-103.79"/>
</g>
<!-- IntroModalPageRoutingModule -->
<g id="node3" class="node">
<title>IntroModalPageRoutingModule</title>
<polygon fill="#8dd3c7" stroke="black" points="219.65,-84.8 216.65,-88.8 195.65,-88.8 192.65,-84.8 24.35,-84.8 24.35,-48.8 219.65,-48.8 219.65,-84.8"/>
<text text-anchor="middle" x="122" y="-62.6" font-family="Times,serif" font-size="14.00">IntroModalPageRoutingModule</text>
</g>
<!-- IntroModalPageRoutingModule&#45;&gt;IntroModalPageModule -->
<g id="edge2" class="edge">
<title>IntroModalPageRoutingModule&#45;&gt;IntroModalPageModule</title>
<path fill="none" stroke="black" d="M173.28,-84.91C173.28,-84.91 173.28,-103.79 173.28,-103.79"/>
<polygon fill="black" stroke="black" points="169.78,-103.79 173.28,-113.79 176.78,-103.79 169.78,-103.79"/>
</g>
</g>
</svg>
