<?xml version="1.0" encoding="UTF-8" standalone="no"?>
<!DOCTYPE svg PUBLIC "-//W3C//DTD SVG 1.1//EN"
 "http://www.w3.org/Graphics/SVG/1.1/DTD/svg11.dtd">
<!-- Generated by graphviz version 3.0.0 (20220226.1711)
 -->
<!-- Title: dependencies Pages: 1 -->
<svg width="560pt" height="174pt"
 viewBox="0.00 0.00 560.00 173.80" xmlns="http://www.w3.org/2000/svg" xmlns:xlink="http://www.w3.org/1999/xlink">
<g id="graph0" class="graph" transform="scale(1 1) rotate(0) translate(4 169.8)">
<title>dependencies</title>
<polygon fill="white" stroke="transparent" points="-4,4 -4,-169.8 556,-169.8 556,4 -4,4"/>
<text text-anchor="middle" x="276" y="-8.2" font-family="sans-serif" font-size="14.00">dependencies</text>
<g id="clust1" class="cluster">
<title>cluster_InputPageModule</title>
<polygon fill="none" stroke="black" stroke-dasharray="1,5" points="8,-32.8 8,-157.8 544,-157.8 544,-32.8 8,-32.8"/>
</g>
<g id="clust2" class="cluster">
<title>cluster_InputPageModule_declarations</title>
<polygon fill="none" stroke="black" points="202,-40.8 202,-92.8 536,-92.8 536,-40.8 202,-40.8"/>
</g>
<g id="clust6" class="cluster">
<title>cluster_InputPageModule_imports</title>
<polygon fill="none" stroke="black" points="16,-40.8 16,-92.8 194,-92.8 194,-40.8 16,-40.8"/>
</g>
<!-- InputPage -->
<g id="node1" class="node">
<title>InputPage</title>
<polygon fill="#ffffb3" stroke="black" points="528.27,-84.8 455.73,-84.8 455.73,-48.8 528.27,-48.8 528.27,-84.8"/>
<text text-anchor="middle" x="492" y="-62.6" font-family="Times,serif" font-size="14.00">InputPage</text>
</g>
<!-- InputPageModule -->
<g id="node4" class="node">
<title>InputPageModule</title>
<polygon fill="#8dd3c7" stroke="black" points="394.32,-149.8 391.32,-153.8 370.32,-153.8 367.32,-149.8 277.68,-149.8 277.68,-113.8 394.32,-113.8 394.32,-149.8"/>
<text text-anchor="middle" x="336" y="-127.6" font-family="Times,serif" font-size="14.00">InputPageModule</text>
</g>
<!-- InputPage&#45;&gt;InputPageModule -->
<g id="edge1" class="edge">
<title>InputPage&#45;&gt;InputPageModule</title>
<path fill="none" stroke="black" d="M492,-84.91C492,-104.14 492,-131.8 492,-131.8 492,-131.8 404.53,-131.8 404.53,-131.8"/>
<polygon fill="black" stroke="black" points="404.53,-128.3 394.53,-131.8 404.53,-135.3 404.53,-128.3"/>
</g>
<!-- ModalPage -->
<g id="node2" class="node">
<title>ModalPage</title>
<polygon fill="#ffffb3" stroke="black" points="437.77,-84.8 358.23,-84.8 358.23,-48.8 437.77,-48.8 437.77,-84.8"/>
<text text-anchor="middle" x="398" y="-62.6" font-family="Times,serif" font-size="14.00">ModalPage</text>
</g>
<!-- ModalPage&#45;&gt;InputPageModule -->
<g id="edge2" class="edge">
<title>ModalPage&#45;&gt;InputPageModule</title>
<path fill="none" stroke="black" d="M376.14,-84.91C376.14,-84.91 376.14,-103.79 376.14,-103.79"/>
<polygon fill="black" stroke="black" points="372.64,-103.79 376.14,-113.79 379.64,-103.79 372.64,-103.79"/>
</g>
<!-- PlayquizComponent -->
<g id="node3" class="node">
<title>PlayquizComponent</title>
<polygon fill="#ffffb3" stroke="black" points="340.32,-84.8 209.68,-84.8 209.68,-48.8 340.32,-48.8 340.32,-84.8"/>
<text text-anchor="middle" x="275" y="-62.6" font-family="Times,serif" font-size="14.00">PlayquizComponent</text>
</g>
<!-- PlayquizComponent&#45;&gt;InputPageModule -->
<g id="edge3" class="edge">
<title>PlayquizComponent&#45;&gt;InputPageModule</title>
<path fill="none" stroke="black" d="M309,-84.91C309,-84.91 309,-103.79 309,-103.79"/>
<polygon fill="black" stroke="black" points="305.5,-103.79 309,-113.79 312.5,-103.79 305.5,-103.79"/>
</g>
<!-- InputPageRoutingModule -->
<g id="node5" class="node">
<title>InputPageRoutingModule</title>
<polygon fill="#8dd3c7" stroke="black" points="185.94,-84.8 182.94,-88.8 161.94,-88.8 158.94,-84.8 24.06,-84.8 24.06,-48.8 185.94,-48.8 185.94,-84.8"/>
<text text-anchor="middle" x="105" y="-62.6" font-family="Times,serif" font-size="14.00">InputPageRoutingModule</text>
</g>
<!-- InputPageRoutingModule&#45;&gt;InputPageModule -->
<g id="edge4" class="edge">
<title>InputPageRoutingModule&#45;&gt;InputPageModule</title>
<path fill="none" stroke="black" d="M105,-84.91C105,-104.14 105,-131.8 105,-131.8 105,-131.8 267.71,-131.8 267.71,-131.8"/>
<polygon fill="black" stroke="black" points="267.71,-135.3 277.71,-131.8 267.71,-128.3 267.71,-135.3"/>
</g>
</g>
</svg>
