<?xml version="1.0" encoding="UTF-8" standalone="no"?>
<!DOCTYPE svg PUBLIC "-//W3C//DTD SVG 1.1//EN"
 "http://www.w3.org/Graphics/SVG/1.1/DTD/svg11.dtd">
<!-- Generated by graphviz version 3.0.0 (20220226.1711)
 -->
<!-- Title: dependencies Pages: 1 -->
<svg width="324pt" height="174pt"
 viewBox="0.00 0.00 324.00 173.80" xmlns="http://www.w3.org/2000/svg" xmlns:xlink="http://www.w3.org/1999/xlink">
<g id="graph0" class="graph" transform="scale(1 1) rotate(0) translate(4 169.8)">
<title>dependencies</title>
<polygon fill="white" stroke="transparent" points="-4,4 -4,-169.8 320,-169.8 320,4 -4,4"/>
<text text-anchor="middle" x="158" y="-8.2" font-family="sans-serif" font-size="14.00">dependencies</text>
<g id="clust1" class="cluster">
<title>cluster_RoomPageModule</title>
<polygon fill="none" stroke="black" stroke-dasharray="1,5" points="8,-32.8 8,-157.8 308,-157.8 308,-32.8 8,-32.8"/>
</g>
<g id="clust4" class="cluster">
<title>cluster_RoomPageModule_imports</title>
<polygon fill="none" stroke="black" points="118,-40.8 118,-92.8 300,-92.8 300,-40.8 118,-40.8"/>
</g>
<g id="clust2" class="cluster">
<title>cluster_RoomPageModule_declarations</title>
<polygon fill="none" stroke="black" points="16,-40.8 16,-92.8 110,-92.8 110,-40.8 16,-40.8"/>
</g>
<!-- RoomPage -->
<g id="node1" class="node">
<title>RoomPage</title>
<polygon fill="#ffffb3" stroke="black" points="101.94,-84.8 24.06,-84.8 24.06,-48.8 101.94,-48.8 101.94,-84.8"/>
<text text-anchor="middle" x="63" y="-62.6" font-family="Times,serif" font-size="14.00">RoomPage</text>
</g>
<!-- RoomPageModule -->
<g id="node2" class="node">
<title>RoomPageModule</title>
<polygon fill="#8dd3c7" stroke="black" points="202.49,-149.8 199.49,-153.8 178.49,-153.8 175.49,-149.8 81.51,-149.8 81.51,-113.8 202.49,-113.8 202.49,-149.8"/>
<text text-anchor="middle" x="142" y="-127.6" font-family="Times,serif" font-size="14.00">RoomPageModule</text>
</g>
<!-- RoomPage&#45;&gt;RoomPageModule -->
<g id="edge1" class="edge">
<title>RoomPage&#45;&gt;RoomPageModule</title>
<path fill="none" stroke="black" d="M91.61,-84.91C91.61,-84.91 91.61,-103.79 91.61,-103.79"/>
<polygon fill="black" stroke="black" points="88.11,-103.79 91.61,-113.79 95.11,-103.79 88.11,-103.79"/>
</g>
<!-- RoomPageRoutingModule -->
<g id="node3" class="node">
<title>RoomPageRoutingModule</title>
<polygon fill="#8dd3c7" stroke="black" points="292.11,-84.8 289.11,-88.8 268.11,-88.8 265.11,-84.8 125.89,-84.8 125.89,-48.8 292.11,-48.8 292.11,-84.8"/>
<text text-anchor="middle" x="209" y="-62.6" font-family="Times,serif" font-size="14.00">RoomPageRoutingModule</text>
</g>
<!-- RoomPageRoutingModule&#45;&gt;RoomPageModule -->
<g id="edge2" class="edge">
<title>RoomPageRoutingModule&#45;&gt;RoomPageModule</title>
<path fill="none" stroke="black" d="M164.22,-84.91C164.22,-84.91 164.22,-103.79 164.22,-103.79"/>
<polygon fill="black" stroke="black" points="160.72,-103.79 164.22,-113.79 167.72,-103.79 160.72,-103.79"/>
</g>
</g>
</svg>
