<?xml version="1.0" encoding="UTF-8" standalone="no"?>
<!DOCTYPE svg PUBLIC "-//W3C//DTD SVG 1.1//EN"
 "http://www.w3.org/Graphics/SVG/1.1/DTD/svg11.dtd">
<!-- Generated by graphviz version 3.0.0 (20220226.1711)
 -->
<!-- Title: dependencies Pages: 1 -->
<svg width="2462pt" height="247pt"
 viewBox="0.00 0.00 2462.00 246.80" xmlns="http://www.w3.org/2000/svg" xmlns:xlink="http://www.w3.org/1999/xlink">
<g id="graph0" class="graph" transform="scale(1 1) rotate(0) translate(4 242.8)">
<title>dependencies</title>
<polygon fill="white" stroke="transparent" points="-4,4 -4,-242.8 2458,-242.8 2458,4 -4,4"/>
<text text-anchor="middle" x="1227" y="-8.2" font-family="sans-serif" font-size="14.00">dependencies</text>
<g id="clust1" class="cluster">
<title>cluster_AdminPageModule</title>
<polygon fill="none" stroke="black" stroke-dasharray="1,5" points="8,-32.8 8,-157.8 316,-157.8 316,-32.8 8,-32.8"/>
</g>
<g id="clust2" class="cluster">
<title>cluster_AdminPageModule_declarations</title>
<polygon fill="none" stroke="black" points="210,-40.8 210,-92.8 308,-92.8 308,-40.8 210,-40.8"/>
</g>
<g id="clust4" class="cluster">
<title>cluster_AdminPageModule_imports</title>
<polygon fill="none" stroke="black" points="16,-40.8 16,-92.8 202,-92.8 202,-40.8 16,-40.8"/>
</g>
<g id="clust14" class="cluster">
<title>cluster_AppModule</title>
<polygon fill="none" stroke="black" stroke-dasharray="1,5" points="324,-32.8 324,-230.8 614,-230.8 614,-32.8 324,-32.8"/>
</g>
<g id="clust15" class="cluster">
<title>cluster_AppModule_declarations</title>
<polygon fill="none" stroke="black" points="484,-40.8 484,-92.8 606,-92.8 606,-40.8 484,-40.8"/>
</g>
<g id="clust17" class="cluster">
<title>cluster_AppModule_imports</title>
<polygon fill="none" stroke="black" points="332,-40.8 332,-92.8 476,-92.8 476,-40.8 332,-40.8"/>
</g>
<g id="clust19" class="cluster">
<title>cluster_AppModule_bootstrap</title>
<polygon fill="none" stroke="black" points="412,-170.8 412,-222.8 536,-222.8 536,-170.8 412,-170.8"/>
</g>
<g id="clust27" class="cluster">
<title>cluster_HomePageModule</title>
<polygon fill="none" stroke="black" stroke-dasharray="1,5" points="622,-32.8 622,-157.8 922,-157.8 922,-32.8 622,-32.8"/>
</g>
<g id="clust28" class="cluster">
<title>cluster_HomePageModule_declarations</title>
<polygon fill="none" stroke="black" points="820,-40.8 820,-92.8 914,-92.8 914,-40.8 820,-40.8"/>
</g>
<g id="clust30" class="cluster">
<title>cluster_HomePageModule_imports</title>
<polygon fill="none" stroke="black" points="630,-40.8 630,-92.8 812,-92.8 812,-40.8 630,-40.8"/>
</g>
<g id="clust40" class="cluster">
<title>cluster_InputPageModule</title>
<polygon fill="none" stroke="black" stroke-dasharray="1,5" points="930,-32.8 930,-157.8 1466,-157.8 1466,-32.8 930,-32.8"/>
</g>
<g id="clust41" class="cluster">
<title>cluster_InputPageModule_declarations</title>
<polygon fill="none" stroke="black" points="1124,-40.8 1124,-92.8 1458,-92.8 1458,-40.8 1124,-40.8"/>
</g>
<g id="clust45" class="cluster">
<title>cluster_InputPageModule_imports</title>
<polygon fill="none" stroke="black" points="938,-40.8 938,-92.8 1116,-92.8 1116,-40.8 938,-40.8"/>
</g>
<g id="clust55" class="cluster">
<title>cluster_IntroModalPageModule</title>
<polygon fill="none" stroke="black" stroke-dasharray="1,5" points="1474,-32.8 1474,-157.8 1832,-157.8 1832,-32.8 1474,-32.8"/>
</g>
<g id="clust56" class="cluster">
<title>cluster_IntroModalPageModule_declarations</title>
<polygon fill="none" stroke="black" points="1702,-40.8 1702,-92.8 1824,-92.8 1824,-40.8 1702,-40.8"/>
</g>
<g id="clust58" class="cluster">
<title>cluster_IntroModalPageModule_imports</title>
<polygon fill="none" stroke="black" points="1482,-40.8 1482,-92.8 1694,-92.8 1694,-40.8 1482,-40.8"/>
</g>
<g id="clust68" class="cluster">
<title>cluster_LoginPageModule</title>
<polygon fill="none" stroke="black" stroke-dasharray="1,5" points="1840,-32.8 1840,-157.8 2138,-157.8 2138,-32.8 1840,-32.8"/>
</g>
<g id="clust69" class="cluster">
<title>cluster_LoginPageModule_declarations</title>
<polygon fill="none" stroke="black" points="2038,-40.8 2038,-92.8 2130,-92.8 2130,-40.8 2038,-40.8"/>
</g>
<g id="clust71" class="cluster">
<title>cluster_LoginPageModule_imports</title>
<polygon fill="none" stroke="black" points="1848,-40.8 1848,-92.8 2030,-92.8 2030,-40.8 1848,-40.8"/>
</g>
<g id="clust81" class="cluster">
<title>cluster_RoomPageModule</title>
<polygon fill="none" stroke="black" stroke-dasharray="1,5" points="2146,-32.8 2146,-157.8 2446,-157.8 2446,-32.8 2146,-32.8"/>
</g>
<g id="clust82" class="cluster">
<title>cluster_RoomPageModule_declarations</title>
<polygon fill="none" stroke="black" points="2344,-40.8 2344,-92.8 2438,-92.8 2438,-40.8 2344,-40.8"/>
</g>
<g id="clust84" class="cluster">
<title>cluster_RoomPageModule_imports</title>
<polygon fill="none" stroke="black" points="2154,-40.8 2154,-92.8 2336,-92.8 2336,-40.8 2154,-40.8"/>
</g>
<!-- AdminPage -->
<g id="node1" class="node">
<title>AdminPage</title>
<polygon fill="#ffffb3" stroke="black" points="300.1,-84.8 217.9,-84.8 217.9,-48.8 300.1,-48.8 300.1,-84.8"/>
<text text-anchor="middle" x="259" y="-62.6" font-family="Times,serif" font-size="14.00">AdminPage</text>
</g>
<!-- AdminPageModule -->
<g id="node2" class="node">
<title>AdminPageModule</title>
<polygon fill="#8dd3c7" stroke="black" points="239.66,-149.8 236.66,-153.8 215.66,-153.8 212.66,-149.8 114.34,-149.8 114.34,-113.8 239.66,-113.8 239.66,-149.8"/>
<text text-anchor="middle" x="177" y="-127.6" font-family="Times,serif" font-size="14.00">AdminPageModule</text>
</g>
<!-- AdminPage&#45;&gt;AdminPageModule -->
<g id="edge1" class="edge">
<title>AdminPage&#45;&gt;AdminPageModule</title>
<path fill="none" stroke="black" d="M228.89,-84.91C228.89,-84.91 228.89,-103.79 228.89,-103.79"/>
<polygon fill="black" stroke="black" points="225.39,-103.79 228.89,-113.79 232.39,-103.79 225.39,-103.79"/>
</g>
<!-- AdminPageRoutingModule -->
<g id="node3" class="node">
<title>AdminPageRoutingModule</title>
<polygon fill="#8dd3c7" stroke="black" points="194.27,-84.8 191.27,-88.8 170.27,-88.8 167.27,-84.8 23.73,-84.8 23.73,-48.8 194.27,-48.8 194.27,-84.8"/>
<text text-anchor="middle" x="109" y="-62.6" font-family="Times,serif" font-size="14.00">AdminPageRoutingModule</text>
</g>
<!-- AdminPageRoutingModule&#45;&gt;AdminPageModule -->
<g id="edge2" class="edge">
<title>AdminPageRoutingModule&#45;&gt;AdminPageModule</title>
<path fill="none" stroke="black" d="M154.28,-84.91C154.28,-84.91 154.28,-103.79 154.28,-103.79"/>
<polygon fill="black" stroke="black" points="150.78,-103.79 154.28,-113.79 157.78,-103.79 150.78,-103.79"/>
</g>
<!-- AppComponent -->
<g id="node4" class="node">
<title>AppComponent</title>
<polygon fill="#ffffb3" stroke="black" points="597.94,-84.8 492.06,-84.8 492.06,-48.8 597.94,-48.8 597.94,-84.8"/>
<text text-anchor="middle" x="545" y="-62.6" font-family="Times,serif" font-size="14.00">AppComponent</text>
</g>
<!-- AppModule -->
<g id="node5" class="node">
<title>AppModule</title>
<polygon fill="#8dd3c7" stroke="black" points="515.66,-149.8 512.66,-153.8 491.66,-153.8 488.66,-149.8 432.34,-149.8 432.34,-113.8 515.66,-113.8 515.66,-149.8"/>
<text text-anchor="middle" x="474" y="-127.6" font-family="Times,serif" font-size="14.00">AppModule</text>
</g>
<!-- AppComponent&#45;&gt;AppModule -->
<g id="edge3" class="edge">
<title>AppComponent&#45;&gt;AppModule</title>
<path fill="none" stroke="black" d="M504.06,-84.91C504.06,-84.91 504.06,-103.79 504.06,-103.79"/>
<polygon fill="black" stroke="black" points="500.56,-103.79 504.06,-113.79 507.56,-103.79 500.56,-103.79"/>
</g>
<!-- AppComponent  -->
<g id="node7" class="node">
<title>AppComponent </title>
<polygon fill="#80b1d3" stroke="black" points="528.44,-214.8 419.56,-214.8 419.56,-178.8 528.44,-178.8 528.44,-214.8"/>
<text text-anchor="middle" x="474" y="-192.6" font-family="Times,serif" font-size="14.00">AppComponent </text>
</g>
<!-- AppModule&#45;&gt;AppComponent  -->
<g id="edge5" class="edge">
<title>AppModule&#45;&gt;AppComponent </title>
<path fill="none" stroke="black" stroke-dasharray="1,5" d="M474,-149.91C474,-149.91 474,-168.79 474,-168.79"/>
<polygon fill="black" stroke="black" points="470.5,-168.79 474,-178.79 477.5,-168.79 470.5,-168.79"/>
</g>
<!-- AppRoutingModule -->
<g id="node6" class="node">
<title>AppRoutingModule</title>
<polygon fill="#8dd3c7" stroke="black" points="468.28,-84.8 465.28,-88.8 444.28,-88.8 441.28,-84.8 339.72,-84.8 339.72,-48.8 468.28,-48.8 468.28,-84.8"/>
<text text-anchor="middle" x="404" y="-62.6" font-family="Times,serif" font-size="14.00">AppRoutingModule</text>
</g>
<!-- AppRoutingModule&#45;&gt;AppModule -->
<g id="edge4" class="edge">
<title>AppRoutingModule&#45;&gt;AppModule</title>
<path fill="none" stroke="black" d="M450.28,-84.91C450.28,-84.91 450.28,-103.79 450.28,-103.79"/>
<polygon fill="black" stroke="black" points="446.78,-103.79 450.28,-113.79 453.78,-103.79 446.78,-103.79"/>
</g>
<!-- HomePage -->
<g id="node8" class="node">
<title>HomePage</title>
<polygon fill="#ffffb3" stroke="black" points="905.93,-84.8 828.07,-84.8 828.07,-48.8 905.93,-48.8 905.93,-84.8"/>
<text text-anchor="middle" x="867" y="-62.6" font-family="Times,serif" font-size="14.00">HomePage</text>
</g>
<!-- HomePageModule -->
<g id="node9" class="node">
<title>HomePageModule</title>
<polygon fill="#8dd3c7" stroke="black" points="847.48,-149.8 844.48,-153.8 823.48,-153.8 820.48,-149.8 726.52,-149.8 726.52,-113.8 847.48,-113.8 847.48,-149.8"/>
<text text-anchor="middle" x="787" y="-127.6" font-family="Times,serif" font-size="14.00">HomePageModule</text>
</g>
<!-- HomePage&#45;&gt;HomePageModule -->
<g id="edge6" class="edge">
<title>HomePage&#45;&gt;HomePageModule</title>
<path fill="none" stroke="black" d="M837.89,-84.91C837.89,-84.91 837.89,-103.79 837.89,-103.79"/>
<polygon fill="black" stroke="black" points="834.39,-103.79 837.89,-113.79 841.39,-103.79 834.39,-103.79"/>
</g>
<!-- HomePageRoutingModule -->
<g id="node10" class="node">
<title>HomePageRoutingModule</title>
<polygon fill="#8dd3c7" stroke="black" points="804.1,-84.8 801.1,-88.8 780.1,-88.8 777.1,-84.8 637.9,-84.8 637.9,-48.8 804.1,-48.8 804.1,-84.8"/>
<text text-anchor="middle" x="721" y="-62.6" font-family="Times,serif" font-size="14.00">HomePageRoutingModule</text>
</g>
<!-- HomePageRoutingModule&#45;&gt;HomePageModule -->
<g id="edge7" class="edge">
<title>HomePageRoutingModule&#45;&gt;HomePageModule</title>
<path fill="none" stroke="black" d="M765.28,-84.91C765.28,-84.91 765.28,-103.79 765.28,-103.79"/>
<polygon fill="black" stroke="black" points="761.78,-103.79 765.28,-113.79 768.78,-103.79 761.78,-103.79"/>
</g>
<!-- InputPage -->
<g id="node11" class="node">
<title>InputPage</title>
<polygon fill="#ffffb3" stroke="black" points="1450.27,-84.8 1377.73,-84.8 1377.73,-48.8 1450.27,-48.8 1450.27,-84.8"/>
<text text-anchor="middle" x="1414" y="-62.6" font-family="Times,serif" font-size="14.00">InputPage</text>
</g>
<!-- InputPageModule -->
<g id="node14" class="node">
<title>InputPageModule</title>
<polygon fill="#8dd3c7" stroke="black" points="1316.32,-149.8 1313.32,-153.8 1292.32,-153.8 1289.32,-149.8 1199.68,-149.8 1199.68,-113.8 1316.32,-113.8 1316.32,-149.8"/>
<text text-anchor="middle" x="1258" y="-127.6" font-family="Times,serif" font-size="14.00">InputPageModule</text>
</g>
<!-- InputPage&#45;&gt;InputPageModule -->
<g id="edge8" class="edge">
<title>InputPage&#45;&gt;InputPageModule</title>
<path fill="none" stroke="black" d="M1414,-84.91C1414,-104.14 1414,-131.8 1414,-131.8 1414,-131.8 1326.53,-131.8 1326.53,-131.8"/>
<polygon fill="black" stroke="black" points="1326.53,-128.3 1316.53,-131.8 1326.53,-135.3 1326.53,-128.3"/>
</g>
<!-- ModalPage -->
<g id="node12" class="node">
<title>ModalPage</title>
<polygon fill="#ffffb3" stroke="black" points="1359.77,-84.8 1280.23,-84.8 1280.23,-48.8 1359.77,-48.8 1359.77,-84.8"/>
<text text-anchor="middle" x="1320" y="-62.6" font-family="Times,serif" font-size="14.00">ModalPage</text>
</g>
<!-- ModalPage&#45;&gt;InputPageModule -->
<g id="edge9" class="edge">
<title>ModalPage&#45;&gt;InputPageModule</title>
<path fill="none" stroke="black" d="M1298.14,-84.91C1298.14,-84.91 1298.14,-103.79 1298.14,-103.79"/>
<polygon fill="black" stroke="black" points="1294.64,-103.79 1298.14,-113.79 1301.64,-103.79 1294.64,-103.79"/>
</g>
<!-- PlayquizComponent -->
<g id="node13" class="node">
<title>PlayquizComponent</title>
<polygon fill="#ffffb3" stroke="black" points="1262.32,-84.8 1131.68,-84.8 1131.68,-48.8 1262.32,-48.8 1262.32,-84.8"/>
<text text-anchor="middle" x="1197" y="-62.6" font-family="Times,serif" font-size="14.00">PlayquizComponent</text>
</g>
<!-- PlayquizComponent&#45;&gt;InputPageModule -->
<g id="edge10" class="edge">
<title>PlayquizComponent&#45;&gt;InputPageModule</title>
<path fill="none" stroke="black" d="M1231,-84.91C1231,-84.91 1231,-103.79 1231,-103.79"/>
<polygon fill="black" stroke="black" points="1227.5,-103.79 1231,-113.79 1234.5,-103.79 1227.5,-103.79"/>
</g>
<!-- InputPageRoutingModule -->
<g id="node15" class="node">
<title>InputPageRoutingModule</title>
<polygon fill="#8dd3c7" stroke="black" points="1107.94,-84.8 1104.94,-88.8 1083.94,-88.8 1080.94,-84.8 946.06,-84.8 946.06,-48.8 1107.94,-48.8 1107.94,-84.8"/>
<text text-anchor="middle" x="1027" y="-62.6" font-family="Times,serif" font-size="14.00">InputPageRoutingModule</text>
</g>
<!-- InputPageRoutingModule&#45;&gt;InputPageModule -->
<g id="edge11" class="edge">
<title>InputPageRoutingModule&#45;&gt;InputPageModule</title>
<path fill="none" stroke="black" d="M1027,-84.91C1027,-104.14 1027,-131.8 1027,-131.8 1027,-131.8 1189.71,-131.8 1189.71,-131.8"/>
<polygon fill="black" stroke="black" points="1189.71,-135.3 1199.71,-131.8 1189.71,-128.3 1189.71,-135.3"/>
</g>
<!-- IntroModalPage -->
<g id="node16" class="node">
<title>IntroModalPage</title>
<polygon fill="#ffffb3" stroke="black" points="1816.48,-84.8 1709.52,-84.8 1709.52,-48.8 1816.48,-48.8 1816.48,-84.8"/>
<text text-anchor="middle" x="1763" y="-62.6" font-family="Times,serif" font-size="14.00">IntroModalPage</text>
</g>
<!-- IntroModalPageModule -->
<g id="node17" class="node">
<title>IntroModalPageModule</title>
<polygon fill="#8dd3c7" stroke="black" points="1743.03,-149.8 1740.03,-153.8 1719.03,-153.8 1716.03,-149.8 1592.97,-149.8 1592.97,-113.8 1743.03,-113.8 1743.03,-149.8"/>
<text text-anchor="middle" x="1668" y="-127.6" font-family="Times,serif" font-size="14.00">IntroModalPageModule</text>
</g>
<!-- IntroModalPage&#45;&gt;IntroModalPageModule -->
<g id="edge12" class="edge">
<title>IntroModalPage&#45;&gt;IntroModalPageModule</title>
<path fill="none" stroke="black" d="M1726.39,-84.91C1726.39,-84.91 1726.39,-103.79 1726.39,-103.79"/>
<polygon fill="black" stroke="black" points="1722.89,-103.79 1726.39,-113.79 1729.89,-103.79 1722.89,-103.79"/>
</g>
<!-- IntroModalPageRoutingModule -->
<g id="node18" class="node">
<title>IntroModalPageRoutingModule</title>
<polygon fill="#8dd3c7" stroke="black" points="1685.65,-84.8 1682.65,-88.8 1661.65,-88.8 1658.65,-84.8 1490.35,-84.8 1490.35,-48.8 1685.65,-48.8 1685.65,-84.8"/>
<text text-anchor="middle" x="1588" y="-62.6" font-family="Times,serif" font-size="14.00">IntroModalPageRoutingModule</text>
</g>
<!-- IntroModalPageRoutingModule&#45;&gt;IntroModalPageModule -->
<g id="edge13" class="edge">
<title>IntroModalPageRoutingModule&#45;&gt;IntroModalPageModule</title>
<path fill="none" stroke="black" d="M1639.28,-84.91C1639.28,-84.91 1639.28,-103.79 1639.28,-103.79"/>
<polygon fill="black" stroke="black" points="1635.78,-103.79 1639.28,-113.79 1642.78,-103.79 1635.78,-103.79"/>
</g>
<!-- LoginPage -->
<g id="node19" class="node">
<title>LoginPage</title>
<polygon fill="#ffffb3" stroke="black" points="2122.16,-84.8 2045.84,-84.8 2045.84,-48.8 2122.16,-48.8 2122.16,-84.8"/>
<text text-anchor="middle" x="2084" y="-62.6" font-family="Times,serif" font-size="14.00">LoginPage</text>
</g>
<!-- LoginPageModule -->
<g id="node20" class="node">
<title>LoginPageModule</title>
<polygon fill="#8dd3c7" stroke="black" points="2064.21,-149.8 2061.21,-153.8 2040.21,-153.8 2037.21,-149.8 1943.79,-149.8 1943.79,-113.8 2064.21,-113.8 2064.21,-149.8"/>
<text text-anchor="middle" x="2004" y="-127.6" font-family="Times,serif" font-size="14.00">LoginPageModule</text>
</g>
<!-- LoginPage&#45;&gt;LoginPageModule -->
<g id="edge14" class="edge">
<title>LoginPage&#45;&gt;LoginPageModule</title>
<path fill="none" stroke="black" d="M2054.89,-84.91C2054.89,-84.91 2054.89,-103.79 2054.89,-103.79"/>
<polygon fill="black" stroke="black" points="2051.39,-103.79 2054.89,-113.79 2058.39,-103.79 2051.39,-103.79"/>
</g>
<!-- LoginPageRoutingModule -->
<g id="node21" class="node">
<title>LoginPageRoutingModule</title>
<polygon fill="#8dd3c7" stroke="black" points="2021.82,-84.8 2018.82,-88.8 1997.82,-88.8 1994.82,-84.8 1856.18,-84.8 1856.18,-48.8 2021.82,-48.8 2021.82,-84.8"/>
<text text-anchor="middle" x="1939" y="-62.6" font-family="Times,serif" font-size="14.00">LoginPageRoutingModule</text>
</g>
<!-- LoginPageRoutingModule&#45;&gt;LoginPageModule -->
<g id="edge15" class="edge">
<title>LoginPageRoutingModule&#45;&gt;LoginPageModule</title>
<path fill="none" stroke="black" d="M1982.78,-84.91C1982.78,-84.91 1982.78,-103.79 1982.78,-103.79"/>
<polygon fill="black" stroke="black" points="1979.28,-103.79 1982.78,-113.79 1986.28,-103.79 1979.28,-103.79"/>
</g>
<!-- RoomPage -->
<g id="node22" class="node">
<title>RoomPage</title>
<polygon fill="#ffffb3" stroke="black" points="2429.94,-84.8 2352.06,-84.8 2352.06,-48.8 2429.94,-48.8 2429.94,-84.8"/>
<text text-anchor="middle" x="2391" y="-62.6" font-family="Times,serif" font-size="14.00">RoomPage</text>
</g>
<!-- RoomPageModule -->
<g id="node23" class="node">
<title>RoomPageModule</title>
<polygon fill="#8dd3c7" stroke="black" points="2371.49,-149.8 2368.49,-153.8 2347.49,-153.8 2344.49,-149.8 2250.51,-149.8 2250.51,-113.8 2371.49,-113.8 2371.49,-149.8"/>
<text text-anchor="middle" x="2311" y="-127.6" font-family="Times,serif" font-size="14.00">RoomPageModule</text>
</g>
<!-- RoomPage&#45;&gt;RoomPageModule -->
<g id="edge16" class="edge">
<title>RoomPage&#45;&gt;RoomPageModule</title>
<path fill="none" stroke="black" d="M2361.89,-84.91C2361.89,-84.91 2361.89,-103.79 2361.89,-103.79"/>
<polygon fill="black" stroke="black" points="2358.39,-103.79 2361.89,-113.79 2365.39,-103.79 2358.39,-103.79"/>
</g>
<!-- RoomPageRoutingModule -->
<g id="node24" class="node">
<title>RoomPageRoutingModule</title>
<polygon fill="#8dd3c7" stroke="black" points="2328.11,-84.8 2325.11,-88.8 2304.11,-88.8 2301.11,-84.8 2161.89,-84.8 2161.89,-48.8 2328.11,-48.8 2328.11,-84.8"/>
<text text-anchor="middle" x="2245" y="-62.6" font-family="Times,serif" font-size="14.00">RoomPageRoutingModule</text>
</g>
<!-- RoomPageRoutingModule&#45;&gt;RoomPageModule -->
<g id="edge17" class="edge">
<title>RoomPageRoutingModule&#45;&gt;RoomPageModule</title>
<path fill="none" stroke="black" d="M2289.28,-84.91C2289.28,-84.91 2289.28,-103.79 2289.28,-103.79"/>
<polygon fill="black" stroke="black" points="2285.78,-103.79 2289.28,-113.79 2292.78,-103.79 2285.78,-103.79"/>
</g>
</g>
</svg>
